<?xml version="1.0" encoding="UTF-8"?>
<svg id="Layer_2" data-name="Layer 2" xmlns="http://www.w3.org/2000/svg" viewBox="0 0 102.73 119.37">
  <g id="Layer_1-2" data-name="Layer 1">
    <g id="icon">
      <path d="M99.7.15c-11.24,6.25-24,10.89-35.47,12.88-10.96,1.9-19.45,8.32-20.76,16.11-4.29,25.57-.87,45.17,9,76.7.23.73,1.59.59,1.65-.18C57.82,54.97,76.13,35.86,101.04.92c.43-.61-.57-1.2-1.34-.77Z" style="fill: #48788a;"/>
      <path d="M101.7,68.48c-6.55-4.99-11.94-13.6-11.33-21.9.08-1.05-1.62-1.47-2.44-.62-18.88,19.61-29.11,53.02-23.57,72.93.17.63,1.28.58,1.47-.05,9.45-31.26,22.77-38.42,35.34-45.96,1.82-1.09,2.09-3.2.52-4.4Z" style="fill: #e2593d;"/>
      <path d="M45.53,118.57c-4.17-24.31-8.47-60.85-29.34-82.3-.78-.8-2.36-.3-2.27.71.94,10.7-7.2,22.54-13.38,30.71-.91,1.2-.73,3.07.81,3.59,23.21,7.92,38.11,39.37,42.48,47.65.4.76,1.83.45,1.7-.36Z" style="fill: #252a50;"/>
    </g>
  </g>
</svg>